<svg xmlns="http://www.w3.org/2000/svg" xmlns:xlink="http://www.w3.org/1999/xlink" width="500" zoomAndPan="magnify" viewBox="0 0 375 374.999991" height="500" preserveAspectRatio="xMidYMid meet" version="1.0"><defs><clipPath id="4e745e0453"><path d="M 52.726562 246 L 321.976562 246 L 321.976562 374.914062 L 52.726562 374.914062 Z M 52.726562 246 " clip-rule="nonzero"/></clipPath><clipPath id="cb395afd6e"><path d="M 116 73.414062 L 259 73.414062 L 259 217 L 116 217 Z M 116 73.414062 " clip-rule="nonzero"/></clipPath><clipPath id="8dd0a15583"><path d="M 52.726562 246 L 321.976562 246 L 321.976562 374.914062 L 52.726562 374.914062 Z M 52.726562 246 " clip-rule="nonzero"/></clipPath><clipPath id="3c5b4cdadc"><path d="M 116 73.414062 L 259 73.414062 L 259 217 L 116 217 Z M 116 73.414062 " clip-rule="nonzero"/></clipPath></defs><g clip-path="url(#4e745e0453)"><path fill="#ff8c00" d="M 229.832031 246.226562 L 145.164062 246.226562 C 143.652344 246.226562 142.140625 246.265625 140.632812 246.34375 C 139.121094 246.417969 137.613281 246.53125 136.109375 246.679688 C 134.601562 246.832031 133.101562 247.015625 131.605469 247.238281 C 130.109375 247.464844 128.621094 247.722656 127.136719 248.019531 C 125.65625 248.316406 124.179688 248.648438 122.714844 249.015625 C 121.246094 249.382812 119.789062 249.789062 118.34375 250.230469 C 116.894531 250.667969 115.460938 251.144531 114.035156 251.652344 C 112.613281 252.164062 111.203125 252.710938 109.804688 253.289062 C 108.410156 253.867188 107.027344 254.480469 105.660156 255.128906 C 104.292969 255.777344 102.941406 256.457031 101.609375 257.167969 C 100.277344 257.882812 98.960938 258.628906 97.664062 259.40625 C 96.367188 260.183594 95.089844 260.992188 93.832031 261.835938 C 92.574219 262.675781 91.339844 263.546875 90.125 264.445312 C 88.910156 265.347656 87.71875 266.277344 86.550781 267.238281 C 85.378906 268.199219 84.234375 269.1875 83.113281 270.203125 C 81.996094 271.21875 80.898438 272.257812 79.832031 273.328125 C 78.761719 274.398438 77.71875 275.492188 76.703125 276.613281 C 75.6875 277.734375 74.699219 278.878906 73.738281 280.046875 C 72.78125 281.21875 71.847656 282.410156 70.949219 283.625 C 70.046875 284.839844 69.175781 286.074219 68.335938 287.332031 C 67.496094 288.589844 66.6875 289.867188 65.90625 291.164062 C 65.128906 292.460938 64.382812 293.773438 63.671875 295.109375 C 62.957031 296.441406 62.277344 297.792969 61.628906 299.160156 C 60.984375 300.527344 60.371094 301.90625 59.789062 303.304688 C 59.210938 304.703125 58.664062 306.113281 58.15625 307.535156 C 57.644531 308.960938 57.167969 310.394531 56.730469 311.839844 C 56.289062 313.289062 55.886719 314.746094 55.515625 316.210938 C 55.148438 317.679688 54.816406 319.152344 54.519531 320.636719 C 54.222656 322.121094 53.964844 323.609375 53.742188 325.105469 C 53.519531 326.601562 53.332031 328.101562 53.183594 329.605469 C 53.03125 331.113281 52.917969 332.621094 52.84375 334.128906 C 52.769531 335.640625 52.730469 337.152344 52.726562 338.664062 L 52.726562 366.902344 C 52.726562 367.421875 52.777344 367.9375 52.878906 368.449219 C 52.980469 368.960938 53.132812 369.457031 53.332031 369.9375 C 53.53125 370.417969 53.773438 370.875 54.0625 371.308594 C 54.351562 371.738281 54.683594 372.140625 55.050781 372.507812 C 55.417969 372.875 55.820312 373.207031 56.25 373.496094 C 56.683594 373.785156 57.140625 374.027344 57.621094 374.226562 C 58.101562 374.425781 58.597656 374.578125 59.109375 374.679688 C 59.621094 374.78125 60.136719 374.832031 60.65625 374.832031 L 314.34375 374.832031 C 314.863281 374.832031 315.378906 374.78125 315.890625 374.679688 C 316.402344 374.578125 316.894531 374.425781 317.378906 374.226562 C 317.859375 374.027344 318.316406 373.785156 318.746094 373.496094 C 319.179688 373.207031 319.582031 372.875 319.949219 372.507812 C 320.316406 372.140625 320.644531 371.738281 320.933594 371.308594 C 321.222656 370.875 321.46875 370.417969 321.667969 369.9375 C 321.867188 369.457031 322.015625 368.960938 322.117188 368.449219 C 322.21875 367.9375 322.269531 367.421875 322.269531 366.902344 L 322.269531 338.664062 C 322.269531 337.152344 322.230469 335.640625 322.15625 334.128906 C 322.078125 332.621094 321.96875 331.113281 321.816406 329.605469 C 321.667969 328.101562 321.480469 326.601562 321.257812 325.105469 C 321.035156 323.609375 320.777344 322.121094 320.480469 320.636719 C 320.183594 319.152344 319.851562 317.679688 319.480469 316.210938 C 319.113281 314.746094 318.710938 313.289062 318.269531 311.839844 C 317.828125 310.394531 317.355469 308.960938 316.84375 307.535156 C 316.332031 306.113281 315.789062 304.703125 315.210938 303.304688 C 314.628906 301.90625 314.015625 300.527344 313.371094 299.160156 C 312.722656 297.792969 312.042969 296.441406 311.328125 295.109375 C 310.613281 293.773438 309.867188 292.460938 309.089844 291.164062 C 308.3125 289.867188 307.503906 288.589844 306.664062 287.332031 C 305.824219 286.074219 304.953125 284.839844 304.050781 283.625 C 303.148438 282.410156 302.21875 281.21875 301.257812 280.046875 C 300.300781 278.878906 299.3125 277.734375 298.296875 276.613281 C 297.28125 275.492188 296.238281 274.398438 295.167969 273.328125 C 294.097656 272.257812 293.003906 271.21875 291.882812 270.203125 C 290.761719 269.1875 289.617188 268.199219 288.449219 267.238281 C 287.28125 266.277344 286.089844 265.347656 284.875 264.445312 C 283.660156 263.546875 282.425781 262.675781 281.167969 261.835938 C 279.910156 260.992188 278.632812 260.183594 277.335938 259.40625 C 276.039062 258.628906 274.722656 257.882812 273.390625 257.167969 C 272.054688 256.457031 270.707031 255.777344 269.339844 255.128906 C 267.972656 254.480469 266.589844 253.867188 265.191406 253.289062 C 263.796875 252.710938 262.386719 252.164062 260.960938 251.652344 C 259.539062 251.144531 258.101562 250.667969 256.65625 250.230469 C 255.210938 249.789062 253.753906 249.382812 252.285156 249.015625 C 250.820312 248.648438 249.34375 248.316406 247.859375 248.019531 C 246.378906 247.722656 244.886719 247.464844 243.390625 247.238281 C 241.898438 247.015625 240.394531 246.832031 238.890625 246.679688 C 237.386719 246.53125 235.878906 246.417969 234.367188 246.34375 C 232.859375 246.265625 231.347656 246.226562 229.832031 246.226562 Z M 229.832031 246.226562 " fill-opacity="1" fill-rule="nonzero"/></g><g clip-path="url(#cb395afd6e)"><path fill="#ff8c00" d="M 258.847656 144.925781 C 258.847656 146.09375 258.820312 147.261719 258.761719 148.425781 C 258.707031 149.59375 258.621094 150.757812 258.503906 151.917969 C 258.390625 153.082031 258.25 154.242188 258.078125 155.394531 C 257.90625 156.550781 257.707031 157.699219 257.476562 158.847656 C 257.25 159.992188 256.996094 161.128906 256.710938 162.261719 C 256.425781 163.394531 256.117188 164.519531 255.777344 165.636719 C 255.4375 166.753906 255.070312 167.863281 254.679688 168.964844 C 254.285156 170.0625 253.863281 171.152344 253.417969 172.230469 C 252.972656 173.308594 252.5 174.375 252 175.433594 C 251.5 176.488281 250.976562 177.53125 250.425781 178.558594 C 249.875 179.589844 249.296875 180.605469 248.699219 181.605469 C 248.097656 182.609375 247.472656 183.59375 246.824219 184.566406 C 246.175781 185.535156 245.503906 186.492188 244.808594 187.429688 C 244.113281 188.367188 243.394531 189.289062 242.652344 190.191406 C 241.914062 191.09375 241.148438 191.976562 240.367188 192.84375 C 239.582031 193.707031 238.777344 194.550781 237.953125 195.378906 C 237.125 196.203125 236.28125 197.007812 235.414062 197.792969 C 234.550781 198.578125 233.664062 199.339844 232.761719 200.082031 C 231.859375 200.820312 230.941406 201.539062 230.003906 202.234375 C 229.066406 202.929688 228.109375 203.601562 227.140625 204.25 C 226.167969 204.898438 225.183594 205.523438 224.179688 206.125 C 223.179688 206.726562 222.164062 207.300781 221.132812 207.851562 C 220.105469 208.402344 219.0625 208.925781 218.003906 209.425781 C 216.949219 209.925781 215.882812 210.398438 214.804688 210.84375 C 213.726562 211.292969 212.636719 211.710938 211.535156 212.105469 C 210.4375 212.5 209.328125 212.863281 208.210938 213.203125 C 207.09375 213.542969 205.96875 213.855469 204.835938 214.136719 C 203.703125 214.421875 202.566406 214.675781 201.417969 214.90625 C 200.273438 215.132812 199.125 215.332031 197.96875 215.503906 C 196.8125 215.675781 195.65625 215.816406 194.492188 215.933594 C 193.332031 216.046875 192.167969 216.132812 191 216.191406 C 189.835938 216.246094 188.667969 216.277344 187.5 216.277344 C 186.332031 216.277344 185.164062 216.246094 184 216.191406 C 182.832031 216.132812 181.667969 216.046875 180.507812 215.933594 C 179.34375 215.816406 178.183594 215.675781 177.03125 215.503906 C 175.875 215.332031 174.726562 215.132812 173.578125 214.90625 C 172.433594 214.675781 171.296875 214.421875 170.164062 214.136719 C 169.03125 213.855469 167.90625 213.542969 166.789062 213.203125 C 165.671875 212.863281 164.5625 212.5 163.460938 212.105469 C 162.363281 211.710938 161.273438 211.292969 160.195312 210.84375 C 159.117188 210.398438 158.050781 209.925781 156.992188 209.425781 C 155.9375 208.925781 154.894531 208.402344 153.867188 207.851562 C 152.835938 207.300781 151.820312 206.726562 150.820312 206.125 C 149.816406 205.523438 148.832031 204.898438 147.859375 204.25 C 146.890625 203.601562 145.933594 202.929688 144.996094 202.234375 C 144.058594 201.539062 143.136719 200.820312 142.234375 200.082031 C 141.332031 199.339844 140.449219 198.578125 139.585938 197.792969 C 138.71875 197.007812 137.875 196.203125 137.046875 195.378906 C 136.222656 194.550781 135.417969 193.707031 134.632812 192.84375 C 133.847656 191.976562 133.085938 191.09375 132.34375 190.191406 C 131.605469 189.289062 130.886719 188.367188 130.191406 187.429688 C 129.496094 186.492188 128.824219 185.535156 128.175781 184.566406 C 127.527344 183.59375 126.902344 182.609375 126.300781 181.605469 C 125.699219 180.605469 125.125 179.589844 124.574219 178.558594 C 124.023438 177.53125 123.5 176.488281 123 175.433594 C 122.5 174.375 122.027344 173.308594 121.582031 172.230469 C 121.132812 171.152344 120.714844 170.0625 120.320312 168.964844 C 119.925781 167.863281 119.5625 166.753906 119.222656 165.636719 C 118.882812 164.519531 118.570312 163.394531 118.289062 162.261719 C 118.003906 161.128906 117.75 159.992188 117.519531 158.847656 C 117.292969 157.699219 117.09375 156.550781 116.921875 155.394531 C 116.75 154.242188 116.609375 153.082031 116.492188 151.917969 C 116.378906 150.757812 116.292969 149.59375 116.234375 148.425781 C 116.179688 147.261719 116.148438 146.09375 116.148438 144.925781 C 116.148438 143.757812 116.179688 142.589844 116.234375 141.425781 C 116.292969 140.257812 116.378906 139.09375 116.492188 137.933594 C 116.609375 136.769531 116.75 135.613281 116.921875 134.457031 C 117.09375 133.300781 117.292969 132.152344 117.519531 131.007812 C 117.75 129.863281 118.003906 128.722656 118.289062 127.589844 C 118.570312 126.457031 118.882812 125.332031 119.222656 124.214844 C 119.5625 123.097656 119.925781 121.988281 120.320312 120.890625 C 120.714844 119.789062 121.132812 118.699219 121.582031 117.621094 C 122.027344 116.542969 122.5 115.476562 123 114.421875 C 123.5 113.363281 124.023438 112.320312 124.574219 111.292969 C 125.125 110.261719 125.699219 109.246094 126.300781 108.246094 C 126.902344 107.242188 127.527344 106.257812 128.175781 105.285156 C 128.824219 104.316406 129.496094 103.363281 130.191406 102.421875 C 130.886719 101.484375 131.605469 100.566406 132.34375 99.664062 C 133.085938 98.761719 133.847656 97.875 134.632812 97.011719 C 135.417969 96.144531 136.222656 95.300781 137.046875 94.472656 C 137.875 93.648438 138.71875 92.84375 139.585938 92.058594 C 140.449219 91.277344 141.332031 90.511719 142.234375 89.773438 C 143.136719 89.03125 144.058594 88.3125 144.996094 87.617188 C 145.933594 86.921875 146.890625 86.25 147.859375 85.601562 C 148.832031 84.953125 149.816406 84.328125 150.820312 83.726562 C 151.820312 83.128906 152.835938 82.550781 153.867188 82 C 154.894531 81.453125 155.9375 80.925781 156.992188 80.425781 C 158.050781 79.929688 159.117188 79.453125 160.195312 79.007812 C 161.273438 78.5625 162.363281 78.140625 163.460938 77.746094 C 164.5625 77.355469 165.671875 76.988281 166.789062 76.648438 C 167.90625 76.308594 169.03125 76 170.164062 75.714844 C 171.296875 75.429688 172.433594 75.175781 173.578125 74.949219 C 174.726562 74.71875 175.875 74.519531 177.03125 74.347656 C 178.183594 74.175781 179.34375 74.035156 180.507812 73.921875 C 181.667969 73.804688 182.832031 73.71875 184 73.664062 C 185.164062 73.605469 186.332031 73.578125 187.5 73.578125 C 188.667969 73.578125 189.835938 73.605469 191 73.664062 C 192.167969 73.71875 193.332031 73.804688 194.492188 73.921875 C 195.65625 74.035156 196.8125 74.175781 197.96875 74.347656 C 199.125 74.519531 200.273438 74.71875 201.417969 74.949219 C 202.566406 75.175781 203.703125 75.429688 204.835938 75.714844 C 205.96875 76 207.09375 76.308594 208.210938 76.648438 C 209.328125 76.988281 210.4375 77.355469 211.535156 77.746094 C 212.636719 78.140625 213.726562 78.5625 214.804688 79.007812 C 215.882812 79.453125 216.949219 79.929688 218.003906 80.425781 C 219.0625 80.925781 220.105469 81.453125 221.132812 82 C 222.164062 82.550781 223.179688 83.128906 224.179688 83.726562 C 225.183594 84.328125 226.167969 84.953125 227.140625 85.601562 C 228.109375 86.25 229.066406 86.921875 230.003906 87.617188 C 230.941406 88.3125 231.859375 89.03125 232.761719 89.773438 C 233.664062 90.511719 234.550781 91.277344 235.414062 92.058594 C 236.28125 92.84375 237.125 93.648438 237.953125 94.472656 C 238.777344 95.300781 239.582031 96.144531 240.367188 97.011719 C 241.148438 97.875 241.914062 98.761719 242.652344 99.664062 C 243.394531 100.566406 244.113281 101.484375 244.808594 102.421875 C 245.503906 103.363281 246.175781 104.316406 246.824219 105.285156 C 247.472656 106.257812 248.097656 107.242188 248.699219 108.246094 C 249.296875 109.246094 249.875 110.261719 250.425781 111.292969 C 250.976562 112.320312 251.5 113.363281 252 114.421875 C 252.5 115.476562 252.972656 116.542969 253.417969 117.621094 C 253.863281 118.699219 254.285156 119.789062 254.679688 120.890625 C 255.070312 121.988281 255.4375 123.097656 255.777344 124.214844 C 256.117188 125.332031 256.425781 126.457031 256.710938 127.589844 C 256.996094 128.722656 257.25 129.863281 257.476562 131.007812 C 257.707031 132.152344 257.90625 133.300781 258.078125 134.457031 C 258.25 135.613281 258.390625 136.769531 258.503906 137.933594 C 258.621094 139.09375 258.707031 140.257812 258.761719 141.425781 C 258.820312 142.589844 258.847656 143.757812 258.847656 144.925781 Z M 258.847656 144.925781 " fill-opacity="1" fill-rule="nonzero"/></g><g clip-path="url(#8dd0a15583)"><path fill="#ff8c00" d="M 229.832031 246.226562 L 145.164062 246.226562 C 143.652344 246.226562 142.140625 246.265625 140.632812 246.34375 C 139.121094 246.417969 137.613281 246.53125 136.109375 246.679688 C 134.601562 246.832031 133.101562 247.015625 131.605469 247.238281 C 130.109375 247.464844 128.621094 247.722656 127.136719 248.019531 C 125.65625 248.316406 124.179688 248.648438 122.714844 249.015625 C 121.246094 249.382812 119.789062 249.789062 118.34375 250.230469 C 116.894531 250.667969 115.460938 251.144531 114.035156 251.652344 C 112.613281 252.164062 111.203125 252.710938 109.804688 253.289062 C 108.410156 253.867188 107.027344 254.480469 105.660156 255.128906 C 104.292969 255.777344 102.941406 256.457031 101.609375 257.167969 C 100.277344 257.882812 98.960938 258.628906 97.664062 259.40625 C 96.367188 260.183594 95.089844 260.992188 93.832031 261.835938 C 92.574219 262.675781 91.339844 263.546875 90.125 264.445312 C 88.910156 265.347656 87.71875 266.277344 86.550781 267.238281 C 85.378906 268.199219 84.234375 269.1875 83.113281 270.203125 C 81.996094 271.21875 80.898438 272.257812 79.832031 273.328125 C 78.761719 274.398438 77.71875 275.492188 76.703125 276.613281 C 75.6875 277.734375 74.699219 278.878906 73.738281 280.046875 C 72.78125 281.21875 71.847656 282.410156 70.949219 283.625 C 70.046875 284.839844 69.175781 286.074219 68.335938 287.332031 C 67.496094 288.589844 66.6875 289.867188 65.90625 291.164062 C 65.128906 292.460938 64.382812 293.773438 63.671875 295.109375 C 62.957031 296.441406 62.277344 297.792969 61.628906 299.160156 C 60.984375 300.527344 60.371094 301.90625 59.789062 303.304688 C 59.210938 304.703125 58.664062 306.113281 58.15625 307.535156 C 57.644531 308.960938 57.167969 310.394531 56.730469 311.839844 C 56.289062 313.289062 55.886719 314.746094 55.515625 316.210938 C 55.148438 317.679688 54.816406 319.152344 54.519531 320.636719 C 54.222656 322.121094 53.964844 323.609375 53.742188 325.105469 C 53.519531 326.601562 53.332031 328.101562 53.183594 329.605469 C 53.03125 331.113281 52.917969 332.621094 52.84375 334.128906 C 52.769531 335.640625 52.730469 337.152344 52.726562 338.664062 L 52.726562 366.902344 C 52.726562 367.421875 52.777344 367.9375 52.878906 368.449219 C 52.980469 368.960938 53.132812 369.457031 53.332031 369.9375 C 53.53125 370.417969 53.773438 370.875 54.0625 371.308594 C 54.351562 371.738281 54.683594 372.140625 55.050781 372.507812 C 55.417969 372.875 55.820312 373.207031 56.25 373.496094 C 56.683594 373.785156 57.140625 374.027344 57.621094 374.226562 C 58.101562 374.425781 58.597656 374.578125 59.109375 374.679688 C 59.621094 374.78125 60.136719 374.832031 60.65625 374.832031 L 314.34375 374.832031 C 314.863281 374.832031 315.378906 374.78125 315.890625 374.679688 C 316.402344 374.578125 316.894531 374.425781 317.378906 374.226562 C 317.859375 374.027344 318.316406 373.785156 318.746094 373.496094 C 319.179688 373.207031 319.582031 372.875 319.949219 372.507812 C 320.316406 372.140625 320.644531 371.738281 320.933594 371.308594 C 321.222656 370.875 321.46875 370.417969 321.667969 369.9375 C 321.867188 369.457031 322.015625 368.960938 322.117188 368.449219 C 322.21875 367.9375 322.269531 367.421875 322.269531 366.902344 L 322.269531 338.664062 C 322.269531 337.152344 322.230469 335.640625 322.15625 334.128906 C 322.078125 332.621094 321.96875 331.113281 321.816406 329.605469 C 321.667969 328.101562 321.480469 326.601562 321.257812 325.105469 C 321.035156 323.609375 320.777344 322.121094 320.480469 320.636719 C 320.183594 319.152344 319.851562 317.679688 319.480469 316.210938 C 319.113281 314.746094 318.710938 313.289062 318.269531 311.839844 C 317.828125 310.394531 317.355469 308.960938 316.84375 307.535156 C 316.332031 306.113281 315.789062 304.703125 315.210938 303.304688 C 314.628906 301.90625 314.015625 300.527344 313.371094 299.160156 C 312.722656 297.792969 312.042969 296.441406 311.328125 295.109375 C 310.613281 293.773438 309.867188 292.460938 309.089844 291.164062 C 308.3125 289.867188 307.503906 288.589844 306.664062 287.332031 C 305.824219 286.074219 304.953125 284.839844 304.050781 283.625 C 303.148438 282.410156 302.21875 281.21875 301.257812 280.046875 C 300.300781 278.878906 299.3125 277.734375 298.296875 276.613281 C 297.28125 275.492188 296.238281 274.398438 295.167969 273.328125 C 294.097656 272.257812 293.003906 271.21875 291.882812 270.203125 C 290.761719 269.1875 289.617188 268.199219 288.449219 267.238281 C 287.28125 266.277344 286.089844 265.347656 284.875 264.445312 C 283.660156 263.546875 282.425781 262.675781 281.167969 261.835938 C 279.910156 260.992188 278.632812 260.183594 277.335938 259.40625 C 276.039062 258.628906 274.722656 257.882812 273.390625 257.167969 C 272.054688 256.457031 270.707031 255.777344 269.339844 255.128906 C 267.972656 254.480469 266.589844 253.867188 265.191406 253.289062 C 263.796875 252.710938 262.386719 252.164062 260.960938 251.652344 C 259.539062 251.144531 258.101562 250.667969 256.65625 250.230469 C 255.210938 249.789062 253.753906 249.382812 252.285156 249.015625 C 250.820312 248.648438 249.34375 248.316406 247.859375 248.019531 C 246.378906 247.722656 244.886719 247.464844 243.390625 247.238281 C 241.898438 247.015625 240.394531 246.832031 238.890625 246.679688 C 237.386719 246.53125 235.878906 246.417969 234.367188 246.34375 C 232.859375 246.265625 231.347656 246.226562 229.832031 246.226562 Z M 229.832031 246.226562 " fill-opacity="1" fill-rule="nonzero"/></g><g clip-path="url(#3c5b4cdadc)"><path fill="#ff8c00" d="M 258.847656 144.925781 C 258.847656 146.09375 258.820312 147.261719 258.761719 148.425781 C 258.707031 149.59375 258.621094 150.757812 258.503906 151.917969 C 258.390625 153.082031 258.25 154.242188 258.078125 155.394531 C 257.90625 156.550781 257.707031 157.699219 257.476562 158.847656 C 257.25 159.992188 256.996094 161.128906 256.710938 162.261719 C 256.425781 163.394531 256.117188 164.519531 255.777344 165.636719 C 255.4375 166.753906 255.070312 167.863281 254.679688 168.964844 C 254.285156 170.0625 253.863281 171.152344 253.417969 172.230469 C 252.972656 173.308594 252.5 174.375 252 175.433594 C 251.5 176.488281 250.976562 177.53125 250.425781 178.558594 C 249.875 179.589844 249.296875 180.605469 248.699219 181.605469 C 248.097656 182.609375 247.472656 183.59375 246.824219 184.566406 C 246.175781 185.535156 245.503906 186.492188 244.808594 187.429688 C 244.113281 188.367188 243.394531 189.289062 242.652344 190.191406 C 241.914062 191.09375 241.148438 191.976562 240.367188 192.84375 C 239.582031 193.707031 238.777344 194.550781 237.953125 195.378906 C 237.125 196.203125 236.28125 197.007812 235.414062 197.792969 C 234.550781 198.578125 233.664062 199.339844 232.761719 200.082031 C 231.859375 200.820312 230.941406 201.539062 230.003906 202.234375 C 229.066406 202.929688 228.109375 203.601562 227.140625 204.25 C 226.167969 204.898438 225.183594 205.523438 224.179688 206.125 C 223.179688 206.726562 222.164062 207.300781 221.132812 207.851562 C 220.105469 208.402344 219.0625 208.925781 218.003906 209.425781 C 216.949219 209.925781 215.882812 210.398438 214.804688 210.84375 C 213.726562 211.292969 212.636719 211.710938 211.535156 212.105469 C 210.4375 212.5 209.328125 212.863281 208.210938 213.203125 C 207.09375 213.542969 205.96875 213.855469 204.835938 214.136719 C 203.703125 214.421875 202.566406 214.675781 201.417969 214.90625 C 200.273438 215.132812 199.125 215.332031 197.96875 215.503906 C 196.8125 215.675781 195.65625 215.816406 194.492188 215.933594 C 193.332031 216.046875 192.167969 216.132812 191 216.191406 C 189.835938 216.246094 188.667969 216.277344 187.5 216.277344 C 186.332031 216.277344 185.164062 216.246094 184 216.191406 C 182.832031 216.132812 181.667969 216.046875 180.507812 215.933594 C 179.34375 215.816406 178.183594 215.675781 177.03125 215.503906 C 175.875 215.332031 174.726562 215.132812 173.578125 214.90625 C 172.433594 214.675781 171.296875 214.421875 170.164062 214.136719 C 169.03125 213.855469 167.90625 213.542969 166.789062 213.203125 C 165.671875 212.863281 164.5625 212.5 163.460938 212.105469 C 162.363281 211.710938 161.273438 211.292969 160.195312 210.84375 C 159.117188 210.398438 158.050781 209.925781 156.992188 209.425781 C 155.9375 208.925781 154.894531 208.402344 153.867188 207.851562 C 152.835938 207.300781 151.820312 206.726562 150.820312 206.125 C 149.816406 205.523438 148.832031 204.898438 147.859375 204.25 C 146.890625 203.601562 145.933594 202.929688 144.996094 202.234375 C 144.058594 201.539062 143.136719 200.820312 142.234375 200.082031 C 141.332031 199.339844 140.449219 198.578125 139.585938 197.792969 C 138.71875 197.007812 137.875 196.203125 137.046875 195.378906 C 136.222656 194.550781 135.417969 193.707031 134.632812 192.84375 C 133.847656 191.976562 133.085938 191.09375 132.34375 190.191406 C 131.605469 189.289062 130.886719 188.367188 130.191406 187.429688 C 129.496094 186.492188 128.824219 185.535156 128.175781 184.566406 C 127.527344 183.59375 126.902344 182.609375 126.300781 181.605469 C 125.699219 180.605469 125.125 179.589844 124.574219 178.558594 C 124.023438 177.53125 123.5 176.488281 123 175.433594 C 122.5 174.375 122.027344 173.308594 121.582031 172.230469 C 121.132812 171.152344 120.714844 170.0625 120.320312 168.964844 C 119.925781 167.863281 119.5625 166.753906 119.222656 165.636719 C 118.882812 164.519531 118.570312 163.394531 118.289062 162.261719 C 118.003906 161.128906 117.75 159.992188 117.519531 158.847656 C 117.292969 157.699219 117.09375 156.550781 116.921875 155.394531 C 116.75 154.242188 116.609375 153.082031 116.492188 151.917969 C 116.378906 150.757812 116.292969 149.59375 116.234375 148.425781 C 116.179688 147.261719 116.148438 146.09375 116.148438 144.925781 C 116.148438 143.757812 116.179688 142.589844 116.234375 141.425781 C 116.292969 140.257812 116.378906 139.09375 116.492188 137.933594 C 116.609375 136.769531 116.75 135.613281 116.921875 134.457031 C 117.09375 133.300781 117.292969 132.152344 117.519531 131.007812 C 117.75 129.863281 118.003906 128.722656 118.289062 127.589844 C 118.570312 126.457031 118.882812 125.332031 119.222656 124.214844 C 119.5625 123.097656 119.925781 121.988281 120.320312 120.890625 C 120.714844 119.789062 121.132812 118.699219 121.582031 117.621094 C 122.027344 116.542969 122.5 115.476562 123 114.421875 C 123.5 113.363281 124.023438 112.320312 124.574219 111.292969 C 125.125 110.261719 125.699219 109.246094 126.300781 108.246094 C 126.902344 107.242188 127.527344 106.257812 128.175781 105.285156 C 128.824219 104.316406 129.496094 103.363281 130.191406 102.421875 C 130.886719 101.484375 131.605469 100.566406 132.34375 99.664062 C 133.085938 98.761719 133.847656 97.875 134.632812 97.011719 C 135.417969 96.144531 136.222656 95.300781 137.046875 94.472656 C 137.875 93.648438 138.71875 92.84375 139.585938 92.058594 C 140.449219 91.277344 141.332031 90.511719 142.234375 89.773438 C 143.136719 89.03125 144.058594 88.3125 144.996094 87.617188 C 145.933594 86.921875 146.890625 86.25 147.859375 85.601562 C 148.832031 84.953125 149.816406 84.328125 150.820312 83.726562 C 151.820312 83.128906 152.835938 82.550781 153.867188 82 C 154.894531 81.453125 155.9375 80.925781 156.992188 80.425781 C 158.050781 79.929688 159.117188 79.453125 160.195312 79.007812 C 161.273438 78.5625 162.363281 78.140625 163.460938 77.746094 C 164.5625 77.355469 165.671875 76.988281 166.789062 76.648438 C 167.90625 76.308594 169.03125 76 170.164062 75.714844 C 171.296875 75.429688 172.433594 75.175781 173.578125 74.949219 C 174.726562 74.71875 175.875 74.519531 177.03125 74.347656 C 178.183594 74.175781 179.34375 74.035156 180.507812 73.921875 C 181.667969 73.804688 182.832031 73.71875 184 73.664062 C 185.164062 73.605469 186.332031 73.578125 187.5 73.578125 C 188.667969 73.578125 189.835938 73.605469 191 73.664062 C 192.167969 73.71875 193.332031 73.804688 194.492188 73.921875 C 195.65625 74.035156 196.8125 74.175781 197.96875 74.347656 C 199.125 74.519531 200.273438 74.71875 201.417969 74.949219 C 202.566406 75.175781 203.703125 75.429688 204.835938 75.714844 C 205.96875 76 207.09375 76.308594 208.210938 76.648438 C 209.328125 76.988281 210.4375 77.355469 211.535156 77.746094 C 212.636719 78.140625 213.726562 78.5625 214.804688 79.007812 C 215.882812 79.453125 216.949219 79.929688 218.003906 80.425781 C 219.0625 80.925781 220.105469 81.453125 221.132812 82 C 222.164062 82.550781 223.179688 83.128906 224.179688 83.726562 C 225.183594 84.328125 226.167969 84.953125 227.140625 85.601562 C 228.109375 86.25 229.066406 86.921875 230.003906 87.617188 C 230.941406 88.3125 231.859375 89.03125 232.761719 89.773438 C 233.664062 90.511719 234.550781 91.277344 235.414062 92.058594 C 236.28125 92.84375 237.125 93.648438 237.953125 94.472656 C 238.777344 95.300781 239.582031 96.144531 240.367188 97.011719 C 241.148438 97.875 241.914062 98.761719 242.652344 99.664062 C 243.394531 100.566406 244.113281 101.484375 244.808594 102.421875 C 245.503906 103.363281 246.175781 104.316406 246.824219 105.285156 C 247.472656 106.257812 248.097656 107.242188 248.699219 108.246094 C 249.296875 109.246094 249.875 110.261719 250.425781 111.292969 C 250.976562 112.320312 251.5 113.363281 252 114.421875 C 252.5 115.476562 252.972656 116.542969 253.417969 117.621094 C 253.863281 118.699219 254.285156 119.789062 254.679688 120.890625 C 255.070312 121.988281 255.4375 123.097656 255.777344 124.214844 C 256.117188 125.332031 256.425781 126.457031 256.710938 127.589844 C 256.996094 128.722656 257.25 129.863281 257.476562 131.007812 C 257.707031 132.152344 257.90625 133.300781 258.078125 134.457031 C 258.25 135.613281 258.390625 136.769531 258.503906 137.933594 C 258.621094 139.09375 258.707031 140.257812 258.761719 141.425781 C 258.820312 142.589844 258.847656 143.757812 258.847656 144.925781 Z M 258.847656 144.925781 " fill-opacity="1" fill-rule="nonzero"/></g></svg>